<!DOCTYPE svg PUBLIC "-//W3C//DTD SVG 1.1//EN" "http://www.w3.org/Graphics/SVG/1.1/DTD/svg11.dtd">

<!-- Uploaded to: SVG Repo, www.svgrepo.com, Transformed by: SVG Repo Mixer Tools -->
<svg version="1.1" id="Layer_1" xmlns="http://www.w3.org/2000/svg" xmlns:xlink="http://www.w3.org/1999/xlink" viewBox="0 0 512 512" xml:space="preserve" width="80px" height="80px" fill="#000000">

<g id="SVGRepo_bgCarrier" stroke-width="0"/>

<g id="SVGRepo_tracerCarrier" stroke-linecap="round" stroke-linejoin="round"/>

<g id="SVGRepo_iconCarrier"> <path style="fill:#E8E8E8;" d="M188.992,0.04C123.28,0.04,70,53.32,70,119.048c0,5.744,0.544,11.36,1.328,16.88 C31.424,140.328,0,174.008,0,215.048v16c0,44,36,80,80,80h352c44,0,80-36,80-80v-16c0-44-36-80-80-80h-30.608 c0.192-2,0.608-3.952,0.608-6c0-35.904-29.104-65.008-65.008-65.008c-13.872,0-26.656,4.416-37.2,11.808 C282.496,31.512,239.472,0.04,188.992,0.04L188.992,0.04z"/> <rect x="161.12" y="246.84" style="fill:#FF7F50;" width="16" height="124.56"/> <polygon style="fill:#0BA4E0;" points="109.76,358.392 169.2,443.72 228.64,358.392 "/> <rect x="334.816" y="387.4" style="fill:#FF7F50;" width="16" height="124.56"/> <polygon style="fill:#0BA4E0;" points="402.24,400.488 342.8,315.176 283.36,400.488 "/> </g>

</svg>