<?xml version="1.0" encoding="utf-8"?>
<!-- Generator: Adobe Illustrator 24.2.1, SVG Export Plug-In . SVG Version: 6.00 Build 0)  -->
<!DOCTYPE svg PUBLIC "-//W3C//DTD SVG 1.1//EN" "http://www.w3.org/Graphics/SVG/1.1/DTD/svg11.dtd" [
	<!ENTITY ns_extend "http://ns.adobe.com/Extensibility/1.0/">
	<!ENTITY ns_ai "http://ns.adobe.com/AdobeIllustrator/10.0/">
	<!ENTITY ns_graphs "http://ns.adobe.com/Graphs/1.0/">
	<!ENTITY ns_vars "http://ns.adobe.com/Variables/1.0/">
	<!ENTITY ns_imrep "http://ns.adobe.com/ImageReplacement/1.0/">
	<!ENTITY ns_sfw "http://ns.adobe.com/SaveForWeb/1.0/">
	<!ENTITY ns_custom "http://ns.adobe.com/GenericCustomNamespace/1.0/">
	<!ENTITY ns_adobe_xpath "http://ns.adobe.com/XPath/1.0/">
]>
<svg version="1.1" id="Layer_1" xmlns:x="&ns_extend;" xmlns:i="&ns_ai;" xmlns:graph="&ns_graphs;"
	 xmlns="http://www.w3.org/2000/svg" xmlns:xlink="http://www.w3.org/1999/xlink" x="0px" y="0px" width="700px" height="700px"
	 viewBox="0 0 2048 2048" style="enable-background:new 0 0 2048 2048;" xml:space="preserve">
<style type="text/css">
	.Drop_x0020_Shadow{fill:none;}
	.Round_x0020_Corners_x0020_2_x0020_pt{fill:#FFFFFF;stroke:#231F20;stroke-miterlimit:10;}
	.Live_x0020_Reflect_x0020_X{fill:none;}
	.Bevel_x0020_Soft{fill:url(#SVGID_1_);}
	.Dusk{fill:#FFFFFF;}
	.Foliage_GS{fill:#FFDD00;}
	.Pompadour_GS{fill-rule:evenodd;clip-rule:evenodd;fill:#44ADE2;}
	.st0{fill:#FF7F50;}
	.st1{fill:#FFFFFF;}
	.st2{fill:#000;}
	.st3{fill:#38B6FF;}
	.st4{fill:#163E7C;}
	.st5{fill:#FFFFFF;stroke:#163E7C;stroke-miterlimit:10;}
</style>
<metadata>
	<sfw  xmlns="&ns_sfw;">
		<slices></slices>
		<sliceSourceBounds  bottomLeftOrigin="true" height="1584.4" width="1483.7" x="282.1" y="-1816.2"></sliceSourceBounds>
	</sfw>
</metadata>
<linearGradient id="SVGID_1_" gradientUnits="userSpaceOnUse" x1="0" y1="0" x2="0.7071" y2="0.7071">
	<stop  offset="0" style="stop-color:#DEDFE3"/>
	<stop  offset="0.1783" style="stop-color:#DADBDF"/>
	<stop  offset="0.3611" style="stop-color:#CECFD3"/>
	<stop  offset="0.546" style="stop-color:#B9BCBF"/>
	<stop  offset="0.7324" style="stop-color:#9CA0A2"/>
	<stop  offset="0.9181" style="stop-color:#787D7E"/>
	<stop  offset="1" style="stop-color:#656B6C"/>
</linearGradient>
<g>
	<rect x="1690.3" y="1263.9" class="st0" width="21.4" height="467.2"/>
	<rect x="454.1" y="1263.9" class="st0" width="21.4" height="467.2"/>
	<path class="st1" d="M939.2,772.2H390.5c-15.2,0-27.6-12.3-27.6-27.6V410.9c0-15.2,12.3-27.6,27.6-27.6h548.7
		c15.2,0,27.6,12.3,27.6,27.6v333.8C966.8,759.9,954.5,772.2,939.2,772.2z"/>
	<path class="st2" d="M898.1,817H344.2c-17.3,0-31.4-14.1-31.4-31.4V444.2c0-17.3,14.1-31.4,31.4-31.4h553.9
		c17.3,0,31.4,14.1,31.4,31.4v341.4C929.5,802.9,915.4,817,898.1,817z"/>
	<g>
		<path class="st0" d="M942.1,773.5H387.6c-14.3,0-26-11.7-26-26V407.9c0-14.3,11.7-26,26-26h554.5c14.3,0,26,11.7,26,26v339.6
			C968.2,761.9,956.5,773.5,942.1,773.5z M387.6,384.6c-12.9,0-23.3,10.5-23.3,23.3v339.6c0,12.9,10.5,23.3,23.3,23.3h554.5
			c12.9,0,23.3-10.5,23.3-23.3V407.9c0-12.9-10.5-23.3-23.3-23.3H387.6z"/>
		<path class="st0" d="M966.8,437.5H363v-26.7c0-15.2,12.3-27.6,27.6-27.6h548.7c15.2,0,27.6,12.3,27.6,27.6V437.5z"/>
		<circle class="st1" cx="399.6" cy="409.4" r="10"/>
		<circle class="st1" cx="431" cy="409.4" r="10"/>
		<circle class="st1" cx="462.5" cy="409.4" r="10"/>
	</g>
	<g>
		<circle class="st0" cx="539.3" cy="600.6" r="110"/>
		<g>
			<g>
				<path class="st3" d="M540.5,654.2c-1.2,0-2.4,0-3.6-0.1c-30.5-2-53.7-28.4-51.7-58.9c2-30.5,28.4-53.7,58.9-51.7
					c30.5,2,53.7,28.4,51.7,58.9C593.8,631.7,569.4,654.2,540.5,654.2z M540.4,545.1c-28,0-51.7,21.9-53.6,50.2
					c-0.9,14.3,3.8,28.1,13.2,38.9c9.5,10.8,22.6,17.2,36.9,18.2c29.6,1.9,55.2-20.6,57.1-50.1c1.9-29.6-20.6-55.2-50.1-57.1
					C542.7,545.1,541.6,545.1,540.4,545.1z"/>
				<path class="st3" d="M540.5,677.4c-1.7,0-3.4-0.1-5.2-0.2c-43.3-2.8-76.2-40.3-73.4-83.6c1.4-21,10.8-40.1,26.6-54
					c15.8-13.9,36-20.7,57-19.4c21,1.4,40.1,10.8,54,26.6c13.9,15.8,20.7,36,19.4,57C616.2,645.4,581.5,677.4,540.5,677.4z
					 M540.3,521.8c-18.7,0-36.5,6.7-50.7,19.1c-15.4,13.6-24.7,32.3-26,52.8c-2.8,42.3,29.5,79,71.8,81.8
					c42.3,2.7,79-29.5,81.8-71.8l0.8,0.1l-0.8-0.1c2.8-42.3-29.5-79-71.8-81.8C543.7,521.9,542,521.8,540.3,521.8z"/>
				<path class="st3" d="M540.6,690.3c-2,0-4-0.1-6.1-0.2c-24.4-1.6-46.7-12.6-62.8-30.9c-16.1-18.4-24.1-41.9-22.5-66.3
					c1.6-24.4,12.6-46.7,30.9-62.8c18.4-16.1,41.9-24.1,66.3-22.5c24.4,1.6,46.7,12.6,62.8,30.9c16.1,18.4,24.1,41.9,22.5,66.3
					l-0.8-0.1l0.8,0.1c-1.6,24.4-12.6,46.7-30.9,62.8C584,682.3,562.8,690.3,540.6,690.3z M540.4,509c-46.9,0-86.5,36.5-89.6,84
					c-3.2,49.4,34.4,92.2,83.8,95.4c2,0.1,3.9,0.2,5.9,0.2c46.9,0,86.5-36.5,89.6-84c1.6-23.9-6.3-47-22.1-65.1
					c-15.8-18-37.7-28.8-61.7-30.4C544.3,509,542.3,509,540.4,509z"/>
				<path class="st3" d="M540.6,701.7c-2.3,0-4.5-0.1-6.8-0.2c-27.4-1.8-52.5-14.1-70.6-34.8C445,646,436,619.5,437.8,592.1
					c1.8-27.4,14.1-52.5,34.8-70.6c20.6-18.1,47.1-27.1,74.5-25.3c27.4,1.8,52.5,14.1,70.6,34.8c18.1,20.6,27.1,47.1,25.3,74.5l0,0
					c-1.8,27.4-14.1,52.5-34.8,70.6C589.4,692.7,565.5,701.7,540.6,701.7z M540.4,497.6c-52.8,0-97.4,41.2-100.9,94.6
					c-1.8,27,7.1,53,24.9,73.3c17.8,20.3,42.5,32.5,69.5,34.2c27,1.8,53-7.1,73.3-24.9s32.5-42.5,34.2-69.5l0.8,0.1l-0.8-0.1
					c3.6-55.7-38.7-103.9-94.4-107.5C544.8,497.7,542.5,497.6,540.4,497.6z"/>
				<path class="st3" d="M540.5,658.5c-1.3,0-2.6,0-3.9-0.1c-32.8-2.1-57.8-30.6-55.7-63.4c1-15.9,8.2-30.5,20.2-41
					c12-10.5,27.3-15.7,43.3-14.7c32.8,2.1,57.8,30.6,55.7,63.4C597.9,634.2,571.6,658.5,540.5,658.5z M540.3,540.8
					c-14.1,0-27.5,5-38.2,14.4c-11.6,10.2-18.6,24.4-19.6,39.8s4.1,30.4,14.3,42c10.2,11.6,24.4,18.6,39.8,19.6
					c31.9,2.1,59.6-22.2,61.6-54.1c2.1-31.9-22.2-59.6-54.1-61.6C542.9,540.8,541.6,540.8,540.3,540.8z"/>
				<g>
					<path class="st1" d="M536,667.1c-37.7-2.4-66.3-35.1-63.8-72.7l12.3,0.8c-2,30.9,21.5,57.6,52.4,59.6L536,667.1z"/>
					<path class="st1" d="M608.7,603.2l-12.3-0.8c1-15-3.9-29.4-13.8-40.7c-9.9-11.3-23.6-18-38.5-19l0.8-12.3
						C582.5,533,611.2,565.6,608.7,603.2z"/>
				</g>
				<g>
					<path class="st1" d="M472.1,594.3l-12.3-0.8c1.4-21.5,11.1-41.2,27.3-55.5c16.2-14.2,37-21.3,58.6-19.9l-0.8,12.3
						c-18.3-1.2-35.9,4.8-49.6,16.9C481.5,559.4,473.3,576.1,472.1,594.3z"/>
					<path class="st1" d="M540.5,679.6c-1.8,0-3.5-0.1-5.3-0.2l0.8-12.3c18.3,1.2,35.9-4.8,49.6-16.9c13.7-12.1,22-28.8,23.2-47
						l12.3,0.8C618.3,646.7,582.7,679.6,540.5,679.6z"/>
				</g>
				<g>
					<path class="st1" d="M600.9,545.3c-14.3-16.2-34-25.8-55.5-27.1c-21.5-1.3-42.3,5.8-58.4,20.1l-8.2-9.2
						c18.6-16.5,42.5-24.7,67.3-23.2c24.8,1.5,47.5,12.6,64,31.2L600.9,545.3z"/>
					<path class="st1" d="M540.5,691.8c-1.9,0-3.9-0.1-5.8-0.2c-24.8-1.5-47.5-12.6-64-31.2l9.2-8.2c29.5,33.3,80.6,36.5,114,7
						l8.2,9.2C584.9,683.7,563.3,691.8,540.5,691.8z"/>
				</g>
				<g>
					<path class="st1" d="M629.6,654l-10.5-6.5c26.9-43.4,13.4-100.5-30-127.4l6.5-10.5c23.8,14.7,40.5,37.9,46.9,65.1
						C648.9,602,644.3,630.2,629.6,654z"/>
					<path class="st1" d="M485.2,687.9c-23.8-14.7-40.5-37.9-46.9-65.1c-6.4-27.3-1.8-55.4,12.9-79.2l10.5,6.5
						c-13,21-17.1,45.8-11.4,69.9c5.7,24.1,20.3,44.5,41.4,57.5L485.2,687.9z"/>
				</g>
			</g>
			<g>
				<path class="st3" d="M540.5,654.2c-1.2,0-2.4,0-3.6-0.1c-30.5-2-53.7-28.4-51.7-58.9c2-30.5,28.4-53.7,58.9-51.7
					c30.5,2,53.7,28.4,51.7,58.9C593.8,631.7,569.4,654.2,540.5,654.2z M540.4,545.1c-28,0-51.7,21.9-53.6,50.2
					c-0.9,14.3,3.8,28.1,13.2,38.9c9.5,10.8,22.6,17.2,36.9,18.2c29.6,1.9,55.2-20.6,57.1-50.1c1.9-29.6-20.6-55.2-50.1-57.1
					C542.7,545.1,541.6,545.1,540.4,545.1z"/>
				<path class="st3" d="M540.5,677.4c-1.7,0-3.4-0.1-5.2-0.2c-43.3-2.8-76.2-40.3-73.4-83.6c1.4-21,10.8-40.1,26.6-54
					c15.8-13.9,36-20.7,57-19.4c21,1.4,40.1,10.8,54,26.6c13.9,15.8,20.7,36,19.4,57C616.2,645.4,581.5,677.4,540.5,677.4z
					 M540.3,521.8c-18.7,0-36.5,6.7-50.7,19.1c-15.4,13.6-24.7,32.3-26,52.8c-2.8,42.3,29.5,79,71.8,81.8
					c42.3,2.7,79-29.5,81.8-71.8l0.8,0.1l-0.8-0.1c2.8-42.3-29.5-79-71.8-81.8C543.7,521.9,542,521.8,540.3,521.8z"/>
				<path class="st3" d="M540.6,690.3c-2,0-4-0.1-6.1-0.2c-24.4-1.6-46.7-12.6-62.8-30.9c-16.1-18.4-24.1-41.9-22.5-66.3
					c1.6-24.4,12.6-46.7,30.9-62.8c18.4-16.1,41.9-24.1,66.3-22.5c24.4,1.6,46.7,12.6,62.8,30.9c16.1,18.4,24.1,41.9,22.5,66.3
					l-0.8-0.1l0.8,0.1c-1.6,24.4-12.6,46.7-30.9,62.8C584,682.3,562.8,690.3,540.6,690.3z M540.4,509c-46.9,0-86.5,36.5-89.6,84
					c-3.2,49.4,34.4,92.2,83.8,95.4c2,0.1,3.9,0.2,5.9,0.2c46.9,0,86.5-36.5,89.6-84c1.6-23.9-6.3-47-22.1-65.1
					c-15.8-18-37.7-28.8-61.7-30.4C544.3,509,542.3,509,540.4,509z"/>
				<path class="st3" d="M540.6,701.7c-2.3,0-4.5-0.1-6.8-0.2c-27.4-1.8-52.5-14.1-70.6-34.8C445,646,436,619.5,437.8,592.1
					c1.8-27.4,14.1-52.5,34.8-70.6c20.6-18.1,47.1-27.1,74.5-25.3c27.4,1.8,52.5,14.1,70.6,34.8c18.1,20.6,27.1,47.1,25.3,74.5l0,0
					c-1.8,27.4-14.1,52.5-34.8,70.6C589.4,692.7,565.5,701.7,540.6,701.7z M540.4,497.6c-52.8,0-97.4,41.2-100.9,94.6
					c-1.8,27,7.1,53,24.9,73.3c17.8,20.3,42.5,32.5,69.5,34.2c27,1.8,53-7.1,73.3-24.9s32.5-42.5,34.2-69.5l0.8,0.1l-0.8-0.1
					c3.6-55.7-38.7-103.9-94.4-107.5C544.8,497.7,542.5,497.6,540.4,497.6z"/>
				<path class="st3" d="M540.5,658.5c-1.3,0-2.6,0-3.9-0.1c-32.8-2.1-57.8-30.6-55.7-63.4c1-15.9,8.2-30.5,20.2-41
					c12-10.5,27.3-15.7,43.3-14.7c32.8,2.1,57.8,30.6,55.7,63.4C597.9,634.2,571.6,658.5,540.5,658.5z M540.3,540.8
					c-14.1,0-27.5,5-38.2,14.4c-11.6,10.2-18.6,24.4-19.6,39.8s4.1,30.4,14.3,42c10.2,11.6,24.4,18.6,39.8,19.6
					c31.9,2.1,59.6-22.2,61.6-54.1c2.1-31.9-22.2-59.6-54.1-61.6C542.9,540.8,541.6,540.8,540.3,540.8z"/>
				<g>
					<path class="st1" d="M536,667.1c-37.7-2.4-66.3-35.1-63.8-72.7l12.3,0.8c-2,30.9,21.5,57.6,52.4,59.6L536,667.1z"/>
					<path class="st1" d="M608.7,603.2l-12.3-0.8c1-15-3.9-29.4-13.8-40.7c-9.9-11.3-23.6-18-38.5-19l0.8-12.3
						C582.5,533,611.2,565.6,608.7,603.2z"/>
				</g>
				<g>
					<path class="st1" d="M472.1,594.3l-12.3-0.8c1.4-21.5,11.1-41.2,27.3-55.5c16.2-14.2,37-21.3,58.6-19.9l-0.8,12.3
						c-18.3-1.2-35.9,4.8-49.6,16.9C481.5,559.4,473.3,576.1,472.1,594.3z"/>
					<path class="st1" d="M540.5,679.6c-1.8,0-3.5-0.1-5.3-0.2l0.8-12.3c18.3,1.2,35.9-4.8,49.6-16.9c13.7-12.1,22-28.8,23.2-47
						l12.3,0.8C618.3,646.7,582.7,679.6,540.5,679.6z"/>
				</g>
				<g>
					<path class="st1" d="M600.9,545.3c-14.3-16.2-34-25.8-55.5-27.1c-21.5-1.3-42.3,5.8-58.4,20.1l-8.2-9.2
						c18.6-16.5,42.5-24.7,67.3-23.2c24.8,1.5,47.5,12.6,64,31.2L600.9,545.3z"/>
					<path class="st1" d="M540.5,691.8c-1.9,0-3.9-0.1-5.8-0.2c-24.8-1.5-47.5-12.6-64-31.2l9.2-8.2c29.5,33.3,80.6,36.5,114,7
						l8.2,9.2C584.9,683.7,563.3,691.8,540.5,691.8z"/>
				</g>
				<g>
					<path class="st1" d="M629.6,654l-10.5-6.5c26.9-43.4,13.4-100.5-30-127.4l6.5-10.5c23.8,14.7,40.5,37.9,46.9,65.1
						C648.9,602,644.3,630.2,629.6,654z"/>
					<path class="st1" d="M485.2,687.9c-23.8-14.7-40.5-37.9-46.9-65.1c-6.4-27.3-1.8-55.4,12.9-79.2l10.5,6.5
						c-13,21-17.1,45.8-11.4,69.9c5.7,24.1,20.3,44.5,41.4,57.5L485.2,687.9z"/>
				</g>
			</g>
			<polygon class="st3" points="633.3,590.9 600.3,590.9 629.5,536.4 675.3,536.4 675.3,538 630.5,538 603.1,589.2 632.5,589.2 
				646.2,572 735.1,572 735.1,573.7 647,573.7 			"/>
			<polygon class="st3" points="693.1,573 691.7,572.1 709.5,545.4 759.3,545.4 767.6,561.9 821.1,561.9 821.1,563.6 766.5,563.6 
				758.3,547.1 710.4,547.1 			"/>
			<polygon class="st3" points="651.6,537.6 650.2,536.8 662.8,514.7 767.6,514.7 767.6,516.4 663.8,516.4 			"/>
			<polygon class="st3" points="697,639.8 653.6,639.8 642,616.9 643.5,616.2 654.6,638.1 696.1,638.1 707.9,620.1 753.2,620.1 
				753.2,621.8 708.8,621.8 			"/>
			<polygon class="st3" points="677.1,617.7 603.9,617.7 603.9,616 676.2,616 696.8,587.1 785.1,587.1 785.1,588.8 697.7,588.8 			
				"/>
			<polygon class="st3" points="831,616.3 764.1,616.3 741.8,587.8 743.2,586.8 764.9,614.6 831,614.6 			"/>
			<polygon class="st3" points="818,653.4 756.6,653.4 735.7,621.4 737.1,620.5 757.5,651.7 818,651.7 			"/>
			<polygon class="st3" points="715.6,666.5 630.3,666.5 596.6,634.9 597.8,633.7 631,664.8 715.6,664.8 			"/>
			<g>
				<circle class="st1" cx="650.5" cy="537" r="3.3"/>
				<path class="st3" d="M650.5,541.2c-2.3,0-4.2-1.9-4.2-4.2c0-2.3,1.9-4.2,4.2-4.2c2.3,0,4.2,1.9,4.2,4.2
					C654.7,539.3,652.8,541.2,650.5,541.2z M650.5,534.5c-1.4,0-2.5,1.1-2.5,2.5c0,1.4,1.1,2.5,2.5,2.5c1.4,0,2.5-1.1,2.5-2.5
					C653,535.7,651.9,534.5,650.5,534.5z"/>
			</g>
			<g>
				<circle class="st1" cx="709.7" cy="546.8" r="3.3"/>
				<path class="st3" d="M709.7,551c-2.3,0-4.2-1.9-4.2-4.2c0-2.3,1.9-4.2,4.2-4.2c2.3,0,4.2,1.9,4.2,4.2
					C713.9,549.1,712,551,709.7,551z M709.7,544.3c-1.4,0-2.5,1.1-2.5,2.5c0,1.4,1.1,2.5,2.5,2.5c1.4,0,2.5-1.1,2.5-2.5
					C712.2,545.4,711,544.3,709.7,544.3z"/>
			</g>
			<g>
				<circle class="st1" cx="663.6" cy="515.4" r="3.3"/>
				<path class="st3" d="M663.6,519.6c-2.3,0-4.2-1.9-4.2-4.2c0-2.3,1.9-4.2,4.2-4.2c2.3,0,4.2,1.9,4.2,4.2
					C667.8,517.7,665.9,519.6,663.6,519.6z M663.6,512.9c-1.4,0-2.5,1.1-2.5,2.5c0,1.4,1.1,2.5,2.5,2.5c1.4,0,2.5-1.1,2.5-2.5
					C666.1,514,665,512.9,663.6,512.9z"/>
			</g>
			<g>
				<circle class="st1" cx="630.3" cy="537" r="3.3"/>
				<path class="st3" d="M630.3,541.2c-2.3,0-4.2-1.9-4.2-4.2c0-2.3,1.9-4.2,4.2-4.2s4.2,1.9,4.2,4.2
					C634.5,539.3,632.6,541.2,630.3,541.2z M630.3,534.5c-1.4,0-2.5,1.1-2.5,2.5c0,1.4,1.1,2.5,2.5,2.5s2.5-1.1,2.5-2.5
					C632.8,535.7,631.7,534.5,630.3,534.5z"/>
			</g>
			<g>
				<circle class="st1" cx="601.8" cy="589.5" r="3.3"/>
				<path class="st3" d="M601.8,593.7c-2.3,0-4.2-1.9-4.2-4.2c0-2.3,1.9-4.2,4.2-4.2c2.3,0,4.2,1.9,4.2,4.2
					C606,591.8,604.2,593.7,601.8,593.7z M601.8,587c-1.4,0-2.5,1.1-2.5,2.5c0,1.4,1.1,2.5,2.5,2.5c1.4,0,2.5-1.1,2.5-2.5
					C604.3,588.1,603.2,587,601.8,587z"/>
			</g>
			<g>
				<circle class="st1" cx="646.8" cy="573.4" r="3.3"/>
				<path class="st3" d="M646.8,577.6c-2.3,0-4.2-1.9-4.2-4.2c0-2.3,1.9-4.2,4.2-4.2c2.3,0,4.2,1.9,4.2,4.2
					C651,575.7,649.1,577.6,646.8,577.6z M646.8,570.9c-1.4,0-2.5,1.1-2.5,2.5c0,1.4,1.1,2.5,2.5,2.5c1.4,0,2.5-1.1,2.5-2.5
					C649.3,572,648.2,570.9,646.8,570.9z"/>
			</g>
			<g>
				<circle class="st1" cx="692.4" cy="572.7" r="3.3"/>
				<path class="st3" d="M692.4,576.9c-2.3,0-4.2-1.9-4.2-4.2c0-2.3,1.9-4.2,4.2-4.2c2.3,0,4.2,1.9,4.2,4.2
					C696.6,575,694.7,576.9,692.4,576.9z M692.4,570.2c-1.4,0-2.5,1.1-2.5,2.5c0,1.4,1.1,2.5,2.5,2.5c1.4,0,2.5-1.1,2.5-2.5
					C694.9,571.3,693.8,570.2,692.4,570.2z"/>
			</g>
			<g>
				<circle class="st1" cx="767.2" cy="562.8" r="3.3"/>
				<path class="st3" d="M767.2,567c-2.3,0-4.2-1.9-4.2-4.2c0-2.3,1.9-4.2,4.2-4.2s4.2,1.9,4.2,4.2C771.4,565.1,769.5,567,767.2,567
					z M767.2,560.3c-1.4,0-2.5,1.1-2.5,2.5c0,1.4,1.1,2.5,2.5,2.5c1.4,0,2.5-1.1,2.5-2.5C769.7,561.4,768.6,560.3,767.2,560.3z"/>
			</g>
			<g>
				<circle class="st1" cx="758.6" cy="546.6" r="3.3"/>
				<path class="st3" d="M758.6,550.8c-2.3,0-4.2-1.9-4.2-4.2c0-2.3,1.9-4.2,4.2-4.2c2.3,0,4.2,1.9,4.2,4.2
					C762.8,548.9,761,550.8,758.6,550.8z M758.6,544.1c-1.4,0-2.5,1.1-2.5,2.5c0,1.4,1.1,2.5,2.5,2.5c1.4,0,2.5-1.1,2.5-2.5
					C761.1,545.3,760,544.1,758.6,544.1z"/>
			</g>
			<g>
				<circle class="st1" cx="697.6" cy="588" r="3.3"/>
				<path class="st3" d="M697.6,592.2c-2.3,0-4.2-1.9-4.2-4.2c0-2.3,1.9-4.2,4.2-4.2c2.3,0,4.2,1.9,4.2,4.2
					C701.8,590.3,699.9,592.2,697.6,592.2z M697.6,585.5c-1.4,0-2.5,1.1-2.5,2.5c0,1.4,1.1,2.5,2.5,2.5c1.4,0,2.5-1.1,2.5-2.5
					C700.1,586.6,698.9,585.5,697.6,585.5z"/>
			</g>
			<g>
				<circle class="st1" cx="743.5" cy="587.6" r="3.3"/>
				<path class="st3" d="M743.5,591.8c-2.3,0-4.2-1.9-4.2-4.2c0-2.3,1.9-4.2,4.2-4.2c2.3,0,4.2,1.9,4.2,4.2
					C747.7,590,745.9,591.8,743.5,591.8z M743.5,585.1c-1.4,0-2.5,1.1-2.5,2.5c0,1.4,1.1,2.5,2.5,2.5c1.4,0,2.5-1.1,2.5-2.5
					C746,586.3,744.9,585.1,743.5,585.1z"/>
			</g>
			<g>
				<circle class="st1" cx="764.8" cy="616.1" r="3.3"/>
				<path class="st3" d="M764.8,620.3c-2.3,0-4.2-1.9-4.2-4.2s1.9-4.2,4.2-4.2c2.3,0,4.2,1.9,4.2,4.2S767.1,620.3,764.8,620.3z
					 M764.8,613.6c-1.4,0-2.5,1.1-2.5,2.5c0,1.4,1.1,2.5,2.5,2.5c1.4,0,2.5-1.1,2.5-2.5C767.3,614.7,766.2,613.6,764.8,613.6z"/>
			</g>
			<g>
				<circle class="st1" cx="736.7" cy="621.3" r="3.3"/>
				<path class="st3" d="M736.7,625.5c-2.3,0-4.2-1.9-4.2-4.2c0-2.3,1.9-4.2,4.2-4.2s4.2,1.9,4.2,4.2
					C740.9,623.6,739,625.5,736.7,625.5z M736.7,618.8c-1.4,0-2.5,1.1-2.5,2.5c0,1.4,1.1,2.5,2.5,2.5c1.4,0,2.5-1.1,2.5-2.5
					C739.2,619.9,738.1,618.8,736.7,618.8z"/>
			</g>
			<g>
				<circle class="st1" cx="708.6" cy="620.9" r="3.3"/>
				<path class="st3" d="M708.6,625.1c-2.3,0-4.2-1.9-4.2-4.2c0-2.3,1.9-4.2,4.2-4.2c2.3,0,4.2,1.9,4.2,4.2
					C712.7,623.2,710.9,625.1,708.6,625.1z M708.6,618.4c-1.4,0-2.5,1.1-2.5,2.5c0,1.4,1.1,2.5,2.5,2.5c1.4,0,2.5-1.1,2.5-2.5
					C711,619.5,709.9,618.4,708.6,618.4z"/>
			</g>
			<g>
				<circle class="st1" cx="697.2" cy="638.1" r="3.3"/>
				<path class="st3" d="M697.2,642.3c-2.3,0-4.2-1.9-4.2-4.2s1.9-4.2,4.2-4.2c2.3,0,4.2,1.9,4.2,4.2S699.5,642.3,697.2,642.3z
					 M697.2,635.6c-1.4,0-2.5,1.1-2.5,2.5s1.1,2.5,2.5,2.5c1.4,0,2.5-1.1,2.5-2.5S698.6,635.6,697.2,635.6z"/>
			</g>
			<g>
				<circle class="st1" cx="643.4" cy="617.5" r="3.3"/>
				<path class="st3" d="M643.4,621.7c-2.3,0-4.2-1.9-4.2-4.2s1.9-4.2,4.2-4.2c2.3,0,4.2,1.9,4.2,4.2S645.7,621.7,643.4,621.7z
					 M643.4,615c-1.4,0-2.5,1.1-2.5,2.5c0,1.4,1.1,2.5,2.5,2.5c1.4,0,2.5-1.1,2.5-2.5C645.9,616.1,644.7,615,643.4,615z"/>
			</g>
			<g>
				<circle class="st1" cx="605.3" cy="617.1" r="3.3"/>
				<path class="st3" d="M605.3,621.3c-2.3,0-4.2-1.9-4.2-4.2c0-2.3,1.9-4.2,4.2-4.2c2.3,0,4.2,1.9,4.2,4.2
					C609.5,619.5,607.6,621.3,605.3,621.3z M605.3,614.7c-1.4,0-2.5,1.1-2.5,2.5c0,1.4,1.1,2.5,2.5,2.5c1.4,0,2.5-1.1,2.5-2.5
					C607.8,615.8,606.6,614.7,605.3,614.7z"/>
			</g>
			<g>
				<circle class="st1" cx="598.1" cy="634.6" r="3.3"/>
				<path class="st3" d="M598.1,638.8c-2.3,0-4.2-1.9-4.2-4.2c0-2.3,1.9-4.2,4.2-4.2s4.2,1.9,4.2,4.2
					C602.3,637,600.4,638.8,598.1,638.8z M598.1,632.1c-1.4,0-2.5,1.1-2.5,2.5c0,1.4,1.1,2.5,2.5,2.5c1.4,0,2.5-1.1,2.5-2.5
					C600.6,633.3,599.4,632.1,598.1,632.1z"/>
			</g>
			<g>
				<circle class="st1" cx="631" cy="665.2" r="3.3"/>
				<path class="st3" d="M631,669.4c-2.3,0-4.2-1.9-4.2-4.2c0-2.3,1.9-4.2,4.2-4.2c2.3,0,4.2,1.9,4.2,4.2
					C635.2,667.5,633.3,669.4,631,669.4z M631,662.7c-1.4,0-2.5,1.1-2.5,2.5c0,1.4,1.1,2.5,2.5,2.5c1.4,0,2.5-1.1,2.5-2.5
					C633.5,663.8,632.4,662.7,631,662.7z"/>
			</g>
			<g>
				<circle class="st1" cx="715.4" cy="665.5" r="3.3"/>
				<path class="st3" d="M715.4,669.7c-2.3,0-4.2-1.9-4.2-4.2s1.9-4.2,4.2-4.2c2.3,0,4.2,1.9,4.2,4.2S717.7,669.7,715.4,669.7z
					 M715.4,663c-1.4,0-2.5,1.1-2.5,2.5c0,1.4,1.1,2.5,2.5,2.5c1.4,0,2.5-1.1,2.5-2.5C717.9,664.1,716.8,663,715.4,663z"/>
			</g>
			<g>
				<circle class="st1" cx="830.4" cy="615.1" r="3.3"/>
				<path class="st3" d="M830.4,619.3c-2.3,0-4.2-1.9-4.2-4.2c0-2.3,1.9-4.2,4.2-4.2c2.3,0,4.2,1.9,4.2,4.2
					C834.6,617.4,832.7,619.3,830.4,619.3z M830.4,612.6c-1.4,0-2.5,1.1-2.5,2.5c0,1.4,1.1,2.5,2.5,2.5c1.4,0,2.5-1.1,2.5-2.5
					C832.9,613.7,831.7,612.6,830.4,612.6z"/>
			</g>
			<g>
				<circle class="st1" cx="817.3" cy="652.8" r="3.3"/>
				<path class="st3" d="M817.3,657c-2.3,0-4.2-1.9-4.2-4.2c0-2.3,1.9-4.2,4.2-4.2s4.2,1.9,4.2,4.2C821.5,655.1,819.6,657,817.3,657
					z M817.3,650.3c-1.4,0-2.5,1.1-2.5,2.5c0,1.4,1.1,2.5,2.5,2.5c1.4,0,2.5-1.1,2.5-2.5C819.8,651.5,818.7,650.3,817.3,650.3z"/>
			</g>
			<g>
				<circle class="st1" cx="757.3" cy="651.8" r="3.3"/>
				<path class="st3" d="M757.3,656c-2.3,0-4.2-1.9-4.2-4.2c0-2.3,1.9-4.2,4.2-4.2s4.2,1.9,4.2,4.2C761.5,654.1,759.6,656,757.3,656
					z M757.3,649.3c-1.4,0-2.5,1.1-2.5,2.5c0,1.4,1.1,2.5,2.5,2.5c1.4,0,2.5-1.1,2.5-2.5C759.8,650.4,758.6,649.3,757.3,649.3z"/>
			</g>
			<g>
				<circle class="st1" cx="784.7" cy="588.7" r="3.3"/>
				<path class="st3" d="M784.7,592.9c-2.3,0-4.2-1.9-4.2-4.2c0-2.3,1.9-4.2,4.2-4.2s4.2,1.9,4.2,4.2
					C788.9,591,787,592.9,784.7,592.9z M784.7,586.2c-1.4,0-2.5,1.1-2.5,2.5c0,1.4,1.1,2.5,2.5,2.5c1.4,0,2.5-1.1,2.5-2.5
					C787.2,587.3,786.1,586.2,784.7,586.2z"/>
			</g>
			<g>
				<circle class="st1" cx="820.4" cy="563.3" r="3.3"/>
				<path class="st3" d="M820.4,567.5c-2.3,0-4.2-1.9-4.2-4.2c0-2.3,1.9-4.2,4.2-4.2c2.3,0,4.2,1.9,4.2,4.2
					C824.6,565.6,822.7,567.5,820.4,567.5z M820.4,560.8c-1.4,0-2.5,1.1-2.5,2.5c0,1.4,1.1,2.5,2.5,2.5c1.4,0,2.5-1.1,2.5-2.5
					C822.9,561.9,821.8,560.8,820.4,560.8z"/>
			</g>
			<g>
				<circle class="st1" cx="767.2" cy="516.3" r="3.3"/>
				<path class="st3" d="M767.2,520.5c-2.3,0-4.2-1.9-4.2-4.2c0-2.3,1.9-4.2,4.2-4.2s4.2,1.9,4.2,4.2
					C771.4,518.6,769.5,520.5,767.2,520.5z M767.2,513.8c-1.4,0-2.5,1.1-2.5,2.5c0,1.4,1.1,2.5,2.5,2.5c1.4,0,2.5-1.1,2.5-2.5
					C769.7,514.9,768.6,513.8,767.2,513.8z"/>
			</g>
			<g>
				<rect x="616.3" y="476.1" class="st1" width="9.8" height="12.9"/>
				<rect x="610.3" y="476.1" class="st1" width="3.6" height="12.9"/>
				<polygon class="st1" points="695.9,482.6 683.3,470 683.3,476.1 628.6,476.1 628.6,489 683.3,489 683.3,495.1 				"/>
			</g>
			<g>
				<rect x="722" y="493" class="st1" width="5.7" height="7.5"/>
				<rect x="718.5" y="493" class="st1" width="2.1" height="7.5"/>
				<polygon class="st1" points="768.3,496.7 761,489.4 761,493 729.2,493 729.2,500.5 761,500.5 761,504 				"/>
			</g>
			<g>
				<rect x="763.1" y="472.9" class="st1" width="5.7" height="7.5"/>
				<rect x="759.7" y="472.9" class="st1" width="2.1" height="7.5"/>
				<polygon class="st1" points="809.5,476.7 802.2,469.4 802.2,472.9 770.3,472.9 770.3,480.4 802.2,480.4 802.2,484 				"/>
			</g>
			<g>
				<rect x="685.8" y="688.8" class="st1" width="8.6" height="11.3"/>
				<rect x="696.5" y="688.8" class="st1" width="3.2" height="11.3"/>
				<polygon class="st1" points="624.3,694.5 635.4,705.5 635.4,700.2 683.5,700.2 683.5,688.8 635.4,688.8 635.4,683.5 				"/>
			</g>
			<g>
				<rect x="791.8" y="678" class="st1" width="8.6" height="11.3"/>
				<rect x="802.5" y="678" class="st1" width="3.2" height="11.3"/>
				<polygon class="st1" points="730.3,683.7 741.4,694.7 741.4,689.4 789.6,689.4 789.6,678 741.4,678 741.4,672.7 				"/>
			</g>
			<g>
				<rect x="762.2" y="707.4" class="st1" width="4.6" height="6.1"/>
				<rect x="767.9" y="707.4" class="st1" width="1.7" height="6.1"/>
				<polygon class="st1" points="729.3,710.5 735.2,716.4 735.2,713.5 761,713.5 761,707.4 735.2,707.4 735.2,704.5 				"/>
			</g>
		</g>
	</g>
	<polygon class="st0" points="977.2,1733.5 660.1,1733.5 811.8,1610.9 	"/>
	<path class="st0" d="M1009.4,1463.9H616.5V996.2c0-57.7,46.8-104.6,104.6-104.6h183.8c57.7,0,104.6,46.8,104.6,104.6V1463.9z"/>
	<rect x="794.9" y="1457.7" class="st0" width="44.4" height="258.9"/>
	<path class="st1" d="M589.6,784.8c-4.6-6.5-13.1-1.1-21.2,7.7l-0.2-2.3c0,0-13-86.6-20.7-85c-7.7,1.5-10,17.6-7.7,31.4
		c2.3,13.8,5.4,31.4,5.4,31.4l2.6,10.4l-0.6-2.4c-1.4-5.5-7.4-8.5-12.6-6.3l-2.5,1c-4.6,1.9-7,7-5.3,11.8l2.3,6.6
		c-0.3,0.1-0.6,0.1-0.8,0.2l-1.4-5.2c-1.4-5.5-7.4-8.5-12.6-6.3l-2.5,1c-4.6,1.9-7,7-5.3,11.8l1.4,4c-0.4,0.1-0.7,0.2-1.1,0.3
		l-0.5-1.8c-1.4-5.5-7.4-8.5-12.6-6.3l-2.5,1c-4.6,1.9-7,7-5.3,11.8l0.8,2.4c-0.1,0.2-0.2,0.3-0.2,0.4c0.8,3.8,4.3,52.3,14.6,68.9
		l68.2-19.7l0.5-0.1C569.5,851.6,600.4,800.2,589.6,784.8z"/>
	<path class="st2" d="M1012.5,1491.2H582.7c-31.7,0-57.4-25.7-57.4-57.4v0c0-31.7,25.7-57.4,57.4-57.4h429.7
		c31.7,0,57.4,25.7,57.4,57.4v0C1069.9,1465.5,1044.2,1491.2,1012.5,1491.2z"/>
	<path class="st3" d="M643.9,1263.1h-54.6c0,0-216.6,345.4-214,345.4c2.6,0,44.9,13,44.9,13L571,1475.1l47.5-85.2l154.2,46.2h158.7
		c0,0,39.7-72.8-4.6-162L643.9,1263.1z"/>
	
		<rect x="801.1" y="1214.9" transform="matrix(0.3215 -0.9469 0.9469 0.3215 -667.8784 1628.75)" class="st1" width="3" height="131"/>
	<path class="st2" d="M376.5,1607.2l-86.3-0.7c0,0-13,5.2-6.1,12.1c6.9,6.9,78.1,34.7,78.1,42.5c0,7.8-1.7,28.6-1.7,28.6l13.9,6.1
		c0,0,49.2-76.6,45.7-76.6C416.7,1619.2,376.5,1607.2,376.5,1607.2z"/>
	<path class="st2" d="M749.3,1693.7l-57.9,107c0,0-3.4,18,9.1,15.2c12.5-2.8,92.9-61.7,101.5-56.2c8.6,5.5,30.3,22,30.3,22l16.4-11
		c0,0-50-107.9-52.4-104.1C793.9,1670.3,749.3,1693.7,749.3,1693.7z"/>
	<path class="st3" d="M627.8,1401.6c0,0,90.9,121.5,131.7,195.4c40.8,73.9,45.9,84.1,45.9,84.1l-56.1,17.8
		c0,0-188.6-180.9-193.7-244.6c-5.1-63.7,40.8-135.1,40.8-135.1L627.8,1401.6z"/>
	<g>
		<path class="st1" d="M735.9,884.4c0,0-62.8-27.2-39.1-72.4c0-5.4-4.6-68.2,29.9-62.8s29.9,7.7,49-3.1s52.1-10.7,54.4,10
			c2.3,20.7,25.3,21.4,38.3,29.1c13,7.7,26.8,14.6,19.9,28.3s22.2,27.6,17.6,40.6c-4.6,13-69.5,59-69.5,59L735.9,884.4z"/>
		<path class="st3" d="M836.8,915.4l-101.7-29.1c-1.4-0.6-34.2-15.1-43.3-40.9c-3.9-11-2.8-22.3,3.1-33.8c0-0.3,0-0.8,0-1.3
			c-1-29.6,3.6-49.2,13.7-58.1c5-4.4,11.2-6.1,18.6-4.9c6.2,1,11.2,1.8,15.3,2.6c17.4,3.1,17.4,3.1,31.8-5l0.6-0.4
			c14.4-8.1,34.9-9.7,46.6-3.7c6.3,3.2,10,8.5,10.8,15.2c1.5,13.7,13.2,18,24.5,22.1c4.6,1.7,9,3.3,12.8,5.5
			c0.8,0.5,1.6,0.9,2.3,1.4c12,7,25.7,15,18.3,29.6c-3,6,2.5,12.4,8.4,19.3c5.8,6.8,11.9,13.8,9.3,21.1c-4.7,13.2-63.6,55.2-70.3,60
			L836.8,915.4z M736.6,882.5l99.5,28.5c18.5-13.1,64.5-47.4,68-57.5c1.8-5.1-3.2-11-8.5-17.2c-6.2-7.2-13.2-15.3-9-23.7
			c5.3-10.5-2.8-16.2-16.8-24.3c-0.8-0.5-1.6-0.9-2.4-1.4c-3.5-2-7.7-3.6-12.1-5.2c-11.9-4.3-25.3-9.2-27.1-25.4
			c-0.6-5.4-3.5-9.4-8.6-12c-10.6-5.5-29.4-3.9-42.8,3.6l-0.6,0.4c-15.5,8.7-15.9,8.8-34.5,5.5c-4-0.7-9-1.6-15.2-2.5
			c-6.2-1-11.2,0.3-15.3,4c-6.3,5.6-13.5,19.6-12.3,54.9c0,0.9,0.1,1.5,0.1,1.9v0.5l-0.2,0.4c-5.6,10.6-6.6,21-3.1,31.1
			C703.8,867.5,734.5,881.6,736.6,882.5z"/>
	</g>
	<path class="st3" d="M745.1,879c0,0-62.8-27.2-39.1-72.4c0-5.4-4.6-68.2,29.9-62.8c34.5,5.4,29.9,7.7,49-3.1s52.1-10.7,54.4,10
		c2.3,20.7,25.3,21.4,38.3,29.1c13,7.7,26.8,14.6,19.9,28.3s22.2,27.6,17.6,40.6c-4.6,13-69.5,59-69.5,59L745.1,879z"/>
	<g>
		<rect x="394.3" y="1241.7" class="st1" width="1369.5" height="36.8"/>
		<path class="st0" d="M1765.9,1280.5H392.3v-40.8h1373.5V1280.5z M396.3,1276.5h1365.5v-32.8H396.3V1276.5z"/>
	</g>
	<g>
		<path class="st2" d="M726.7,982.4c0,0-51.2,80.5-78.8,59.8c-27.6-20.7-76.6-191.5-76.6-191.5l-79.7,25.7
			c0,0,55.1,212.6,98.8,233.2c43.7,20.7,121,6.1,121,6.1s42.1-39.8,42.9-42.1C755.1,1071.3,726.7,982.4,726.7,982.4z"/>
		<g>
			<path class="st1" d="M556.9,782.7c0,0-71.5,16.1-70.7,19.9s4.3,52.3,14.6,68.9l69.4-20"/>
			<path class="st3" d="M499.8,873.9l-0.8-1.3c-8.7-14.2-12.6-49.3-14.2-64.4c-0.3-2.6-0.5-4.7-0.6-5.2c-0.5-2.3,1.3-3.7,12.1-7
				c5.9-1.8,14.1-4.1,24.4-6.7c17.6-4.5,35.5-8.5,35.7-8.5l0.9,3.9c-30.3,6.8-64,15.4-69.1,18.5c0.1,0.9,0.3,2.4,0.5,4.6
				c1.4,13.1,5.1,47.1,12.9,61.4l67.9-19.6l1.1,3.8L499.8,873.9z"/>
		</g>
		<g>
			<path class="st1" d="M534.5,769.7l-2.5,1c-4.6,1.9-7,7-5.3,11.8l11.8,34.4c1.8,5.3,7.8,7.8,12.8,5.5h0c4.1-1.9,6.3-6.5,5.2-10.9
				l-9.3-35.4C545.7,770.6,539.8,767.6,534.5,769.7z"/>
			<path class="st3" d="M547.4,825.2c-1.5,0-3-0.3-4.5-0.9c-3-1.3-5.3-3.7-6.3-6.8l-11.8-34.4c-2-5.7,0.9-12,6.5-14.3l2.5-1
				c3-1.2,6.5-1.1,9.4,0.4c2.9,1.5,5.1,4.1,5.9,7.3l9.3,35.4c1.4,5.4-1.2,10.9-6.2,13.3C550.7,824.9,549,825.2,547.4,825.2z
				 M535.3,771.6l-2.5,1c-3.6,1.5-5.5,5.6-4.2,9.3l11.8,34.4c0.7,2,2.1,3.6,4.1,4.4c1.9,0.8,4.1,0.8,6-0.1c3.3-1.5,5-5.1,4.1-8.6
				l-9.3-35.4c-0.5-2.1-1.9-3.8-3.8-4.7S537.3,770.8,535.3,771.6L535.3,771.6z"/>
		</g>
		<g>
			<path class="st1" d="M514.1,777.9l-2.5,1c-4.6,1.9-7,7-5.3,11.8l11.8,34.4c1.8,5.3,7.8,7.8,12.8,5.5h0c4.1-1.9,6.3-6.5,5.2-10.9
				l-9.3-35.4C525.3,778.7,519.4,775.8,514.1,777.9z"/>
			<path class="st3" d="M527,833.4c-1.5,0-3-0.3-4.5-0.9c-3-1.3-5.3-3.7-6.3-6.8l-11.8-34.4c-2-5.7,0.9-12,6.5-14.3l2.5-1
				c3-1.2,6.5-1.1,9.4,0.4c2.9,1.5,5.1,4.1,5.9,7.3l9.3,35.4c1.4,5.4-1.2,10.9-6.2,13.3C530.2,833,528.6,833.4,527,833.4z
				 M517.7,779.2c-0.9,0-1.9,0.2-2.8,0.5l-2.5,1c-3.6,1.5-5.5,5.6-4.2,9.3l11.8,34.4c0.7,2,2.1,3.6,4.1,4.4c1.9,0.8,4.1,0.8,6-0.1
				c3.3-1.5,5-5.1,4.1-8.6l-9.3-35.4c-0.5-2.1-1.9-3.8-3.8-4.7C519.9,779.5,518.8,779.2,517.7,779.2z"/>
		</g>
		<g>
			<path class="st1" d="M493.4,786.8l-2.5,1c-4.6,1.9-7,7-5.3,11.8l11.8,34.4c1.8,5.3,7.8,7.8,12.8,5.5l0,0
				c4.1-1.9,6.3-6.5,5.2-10.9l-9.3-35.4C504.6,787.7,498.7,784.7,493.4,786.8z"/>
			<path class="st3" d="M506.3,842.3c-1.5,0-3-0.3-4.5-0.9c-3-1.3-5.3-3.7-6.3-6.8l-11.8-34.4c-2-5.7,0.9-12,6.5-14.3l2.5-1
				c3-1.2,6.5-1.1,9.4,0.4c2.9,1.5,5.1,4.1,5.9,7.3l9.3,35.4c1.4,5.4-1.2,10.9-6.2,13.3C509.6,842,507.9,842.3,506.3,842.3z
				 M494.2,788.7l-2.5,1c-3.6,1.5-5.5,5.6-4.2,9.3l11.8,34.4c0.7,2,2.1,3.6,4.1,4.4c1.9,0.8,4.1,0.8,6-0.1c3.3-1.5,5-5.1,4.1-8.6
				l-9.3-35.4c-0.5-2.1-1.9-3.8-3.8-4.7C498.4,788,496.2,787.9,494.2,788.7L494.2,788.7z"/>
		</g>
		<g>
			<path class="st1" d="M568.2,790.2c0,0-13-86.6-20.7-85c-7.7,1.5-10,17.6-7.7,31.4s5.4,31.4,5.4,31.4l10.2,41.2l13-16.6
				L568.2,790.2z"/>
			<path class="st3" d="M554.5,813.7l-11.2-45.3c0-0.2-3.1-17.8-5.4-31.4c-2.5-15.1,0.2-31.9,9.2-33.7c0.6-0.1,1.5-0.1,2.6,0.6
				c1.5,1.1,5.5,3.9,13.6,45.7c3.9,20.3,6.9,40.2,6.9,40.4l0,0.1l0.3,3.2L554.5,813.7z M547.2,767.6l9.2,37.2l10-12.7l-0.2-1.6
				c-5.8-38.3-14.2-79.5-18.6-83.2c-5.3,1.6-8,15.2-5.7,29C544,749.4,547,766.3,547.2,767.6z"/>
		</g>
		<g>
			<path class="st1" d="M785.6,956.2l-9.3-48h65.5l12,68.8c0,0-46.9,8.7-52.4,6.5C796,981.3,785.6,956.2,785.6,956.2z"/>
			<path class="st3" d="M804.7,985.8c-1.8,0-3.2-0.1-4-0.4c-5.9-2.4-15.1-24.1-16.9-28.4l-0.1-0.4l-9.7-50.4h69.6l12.6,72.4
				l-1.9,0.4C847.3,980.2,816.5,985.8,804.7,985.8z M787.5,955.6c4.8,11.7,11.8,24.9,14.6,26c3,1.2,27.1-2.2,49.3-6.3l-11.4-65.2
				h-61.4L787.5,955.6z"/>
		</g>
		<path class="st2" d="M1076.8,1157.1c-1.6-18-135.7-169.8-153.7-186.1c-18-16.4-73.7-14.7-73.7-14.7c-34.4,29.5-63.9,0-63.9,0
			l-58.9,26.2l-42.6,117.9l-9.8,117.9l143,22.4l83,2.2c0,0,109.5-5.4,132.2-10.6C1086,1219.9,1078.4,1175.1,1076.8,1157.1z
			 M912.5,1181.7c0,0-1.6-31.1,2.5-41.7v-2.5l47,34.9L912.5,1181.7z"/>
		<polygon class="st3" points="464.7,1084.7 695.6,1083.9 763.5,1239.5 842.9,1240.3 842.9,1252.6 535.9,1252.6 		"/>
		<g>
			<path class="st1" d="M735.7,835.1c0,0,0,58.1,24.6,78.6s42.6,27,59.8,18.8c17.2-8.2,28.7-18,35.2-55.7c0,0,12.3-1.6,12.3-22.1
				s-21.3-23.7-22.1-12.3l-1.6,9.8c0,0-18.8-3.3-28.7-24.6c-9.8-21.3-41.7-31.9-41.7-31.9S757.8,831.8,735.7,835.1z"/>
			<path class="st3" d="M805.3,937.9c-13.2,0-27.9-7.3-46.3-22.7c-25-20.8-25.3-77.7-25.3-80.1v-1.7l1.7-0.3
				c20.8-3.1,36-37.8,36.1-38.1l0.7-1.7l1.7,0.6c1.3,0.4,32.9,11.2,42.9,33c7.4,16.1,20.3,21.4,25.2,22.9l1.3-7.6
				c0.4-5.2,4.4-8.5,9.8-8.3c7.9,0.3,16.2,7.7,16.2,20.8c0,17.9-8.9,22.6-12.5,23.7c-6.4,35.7-17.2,46.9-36.1,55.8
				C815.8,936.7,810.7,937.9,805.3,937.9z M737.7,836.7c0.2,9.6,2.5,57.7,23.8,75.4c24.6,20.5,41.9,26.1,57.6,18.6
				c15.7-7.5,27.4-15.8,34.1-54.2l0.3-1.4l1.5-0.2c0.4-0.1,10.5-1.8,10.5-20.1c0-11.9-7.6-16.7-12.4-16.8c-1.2,0-5.4,0.2-5.7,4.7
				l0,0.2l-2,11.8l-2-0.3c-0.8-0.1-20-3.7-30.1-25.7c-8.1-17.5-32.3-27.7-38.9-30.3C771,805.5,757.1,832.4,737.7,836.7z"/>
		</g>
		<g>
			<path class="st1" d="M819.2,1200.5l0.8,39h-28.9c0,0-6.8-4.6-11.2-5.2c-4.4-0.5-17.7,2.7-17.7,2.7l-7.9-16.9
				c0,0,19.4-13.1,24-14.5s15,0.3,17.7,0.5c2.5,0.3,14.6,3.4,21.7-6.2C818.2,1199.3,819.2,1199.7,819.2,1200.5z"/>
			<path class="st3" d="M822,1241.5h-31.6l-0.5-0.3c-1.8-1.2-7.1-4.5-10.3-4.9c-3.3-0.4-13.4,1.8-17,2.7l-1.6,0.4l-9.3-20l1.4-1
				c2-1.4,19.8-13.3,24.6-14.7c4.3-1.3,12.4-0.3,16.8,0.3c0.7,0.1,1.3,0.2,1.7,0.2c0.3,0,0.7,0.1,1.2,0.2c3.9,0.6,13,2,18.7-5.6
				c0.7-1,2-1.4,3.2-1c1.2,0.4,1.9,1.4,2,2.7L822,1241.5z M791.7,1237.5h26.3l-0.7-34c-7.1,6.9-16.7,5.4-20.5,4.8
				c-0.4-0.1-0.7-0.1-1-0.1c-0.4,0-1.1-0.1-1.8-0.2c-3.8-0.5-11.6-1.4-15.2-0.4c-3,0.9-14.3,8.1-22,13.2l6.5,13.9
				c3.8-0.9,13.1-2.9,16.9-2.4C784.3,1232.8,789.9,1236.3,791.7,1237.5z M817.2,1200.5C817.2,1200.5,817.2,1200.5,817.2,1200.5
				L817.2,1200.5z"/>
		</g>
		<g>
			<circle class="st1" cx="589.7" cy="1153.8" r="18.6"/>
			<path class="st4" d="M589.7,1172.8c-10.5,0-19.1-8.5-19.1-19.1s8.5-19.1,19.1-19.1s19.1,8.5,19.1,19.1S600.2,1172.8,589.7,1172.8
				z M589.7,1135.7c-10,0-18.1,8.1-18.1,18.1s8.1,18.1,18.1,18.1s18.1-8.1,18.1-18.1S599.6,1135.7,589.7,1135.7z"/>
		</g>
		<g>
			<path class="st1" d="M570.5,821.6c-13.8,15.3-20.7,6.1-22.2,2.3s30.6-54.4,41.4-39.1S569,852.4,569,852.4"/>
			<path class="st3" d="M570.7,853.5l-3.4-2.1c8.5-14.2,28.9-53.7,20.8-65.4c-1.3-1.9-3-2.4-5.4-1.7c-11.9,3.5-31.7,34.2-32.4,39.2
				c0.4,1,2.1,4.1,5.3,4.6c3.6,0.6,8.3-2,13.4-7.8l3,2.7c-6.2,6.9-12,10-17.1,9.1c-4.4-0.8-7.2-4.3-8.5-7.3
				c-1.4-3.6,8.2-17.6,10.1-20.4c4.5-6.5,13.3-17.9,21.6-22.4c7.4-4,11.4-0.5,13.1,1.9C602.4,799.6,574,848,570.7,853.5z"/>
		</g>
	</g>
	<polygon class="st3" points="822.6,1201.1 821.9,1197.1 915.9,1179.4 966,1169.9 1003.3,1186.3 1001.7,1189.9 965.5,1174.1 
		916.7,1183.3 	"/>
	
		<rect x="965.4" y="1166.6" transform="matrix(0.9869 -0.1614 0.1614 0.9869 -175.6602 174.5764)" class="st3" width="42.7" height="4"/>
	<path class="st3" d="M918.7,1123c-16.8-41.3-9.6-123.1-9.3-126.6l4,0.4c-0.1,0.8-7.4,84.2,9.1,124.7L918.7,1123z"/>
	<path class="st3" d="M915.1,1111.9c-20.7-29.2-29.1-97.6-29.5-100.5l4-0.5c0.1,0.7,8.6,70.3,28.8,98.7L915.1,1111.9z"/>
	<path class="st3" d="M757.1,1206l-4,0c0-0.4,0.2-42.8-14.2-65c-14.8-22.8-15.8-43.6-3.4-69.6c11.1-23.4,8.9-67.7,8.9-68.1l4-0.2
		c0.1,1.9,2.3,45.7-9.3,70c-11.7,24.6-10.8,44.3,3.2,65.7C757.3,1162,757.1,1204.2,757.1,1206z"/>
	<polygon class="st1" points="421.2,1622.5 419.1,1620.4 570.4,1472.5 617.8,1388.1 772.9,1434.6 935.1,1434.6 935.1,1437.6 
		772.4,1437.6 772.2,1437.5 619.2,1391.7 572.8,1474.4 572.7,1474.5 	"/>
	<g>
		<g>
			<path class="st1" d="M1731.3,1169.1H1522c-11.1,0-20.1-9-20.1-20.1V652.8c0-11.1,9-20.1,20.1-20.1h217.5c11.1,0,20.1,9,20.1,20.1
				v488C1759.6,1156.4,1746.9,1169.1,1731.3,1169.1z"/>
			<path class="st2" d="M1712.8,1195.6h-276.1c-9.6,0-17.4-7.8-17.4-17.4V674.8c0-9.6,7.8-17.4,17.4-17.4h276.1
				c9.6,0,17.4,7.8,17.4,17.4v503.4C1730.2,1187.8,1722.4,1195.6,1712.8,1195.6z"/>
			<path class="st0" d="M1733.9,628.2h-241.5c-15.5,0-28,12.6-28,28v485c0,15.5,12.6,28,28,28h241.5c15.5,0,28-12.6,28-28v-485
				C1761.9,640.8,1749.4,628.2,1733.9,628.2z M1758.8,1137.7c0,15.5-12.6,28-28,28h-198.7c-15.5,0-28-12.6-28-28V667.9
				c0-15.5,12.6-28,28-28h198.7c15.5,0,28,12.6,28,28V1137.7z"/>
			<path class="st0" d="M1685.7,673.2h-95.6c-4.6,0-8.3-3.7-8.3-8.3v-17.3c0-4.6,3.7-8.3,8.3-8.3h95.6c4.6,0,8.3,3.7,8.3,8.3v17.3
				C1694,669.5,1690.3,673.2,1685.7,673.2z"/>
			<circle class="st1" cx="1667.7" cy="1121.9" r="26.3"/>
			<g>
				<circle class="st3" cx="1658.3" cy="1121.9" r="26.3"/>
				<path class="st0" d="M1658.3,1149.2c-15,0-27.3-12.2-27.3-27.3s12.2-27.3,27.3-27.3s27.3,12.2,27.3,27.3
					S1673.4,1149.2,1658.3,1149.2z M1658.3,1096.6c-14,0-25.3,11.4-25.3,25.3s11.4,25.3,25.3,25.3s25.3-11.4,25.3-25.3
					S1672.3,1096.6,1658.3,1096.6z"/>
			</g>
		</g>
		<g>
			<g>
				<path class="st3" d="M1619.3,945.1c-1.1,0-2.1,0-3.2-0.1c-27.1-1.8-47.7-25.2-46-52.3c1.8-27.1,25.2-47.7,52.3-46
					c27.1,1.8,47.7,25.2,46,52.3C1666.8,925.1,1645.1,945.1,1619.3,945.1z M1619.3,848.1c-24.9,0-46,19.4-47.6,44.7
					c-0.8,12.7,3.4,25,11.8,34.6c8.4,9.6,20.1,15.3,32.8,16.1c26.3,1.7,49-18.3,50.7-44.5c1.7-26.3-18.3-49-44.5-50.7
					C1621.4,848.2,1620.3,848.1,1619.3,848.1z"/>
				<path class="st3" d="M1619.4,965.8c-1.5,0-3,0-4.6-0.1c-38.5-2.5-67.7-35.8-65.2-74.3c1.2-18.6,9.6-35.7,23.6-48
					c14-12.3,32-18.4,50.7-17.2c18.6,1.2,35.7,9.6,48,23.6c12.3,14,18.4,32,17.2,50.7C1686.7,937.3,1655.9,965.8,1619.4,965.8z
					 M1619.2,827.5c-16.6,0-32.4,6-45,17c-13.7,12.1-21.9,28.7-23.1,47c-2.4,37.6,26.2,70.3,63.8,72.7c37.6,2.4,70.3-26.2,72.7-63.8
					l0.8,0l-0.8,0c2.4-37.6-26.2-70.3-63.8-72.7C1622.2,827.5,1620.7,827.5,1619.2,827.5z"/>
				<path class="st3" d="M1619.4,977.2c-1.8,0-3.6-0.1-5.4-0.2c-21.7-1.4-41.5-11.2-55.9-27.5c-14.3-16.3-21.5-37.3-20-58.9
					c1.4-21.7,11.2-41.5,27.5-55.9c16.3-14.3,37.3-21.5,58.9-20c21.7,1.4,41.5,11.2,55.9,27.5c14.3,16.3,21.5,37.3,20,58.9l-0.8,0
					l0.8,0c-1.4,21.7-11.2,41.5-27.5,55.9C1658,970.1,1639.2,977.2,1619.4,977.2z M1619.3,816c-41.7,0-76.9,32.5-79.6,74.7
					c-2.9,43.9,30.6,82,74.5,84.8c1.8,0.1,3.5,0.2,5.2,0.2c41.7,0,76.9-32.5,79.6-74.7c1.4-21.3-5.6-41.8-19.7-57.9
					c-14.1-16-33.5-25.6-54.8-27C1622.7,816.1,1621,816,1619.3,816z"/>
				<path class="st3" d="M1619.4,987.3c-2,0-4-0.1-6.1-0.2c-24.4-1.6-46.7-12.6-62.8-30.9c-16.1-18.4-24.1-41.9-22.5-66.3
					c1.6-24.4,12.6-46.7,30.9-62.8c18.4-16.1,41.9-24.1,66.3-22.5c24.4,1.6,46.7,12.6,62.8,30.9c16.1,18.4,24.1,41.9,22.5,66.3l0,0
					c-1.6,24.4-12.6,46.7-30.9,62.8C1662.8,979.4,1641.6,987.3,1619.4,987.3z M1619.2,805.9c-47,0-86.6,36.6-89.7,84.1
					c-1.6,24,6.3,47.1,22.2,65.2c15.9,18.1,37.8,28.9,61.8,30.4c24,1.6,47.1-6.3,65.2-22.2c18.1-15.9,28.9-37.8,30.4-61.8l0.8,0
					l-0.8,0c3.2-49.5-34.4-92.4-83.9-95.6C1623.2,806,1621.2,805.9,1619.2,805.9z"/>
				<path class="st3" d="M1619.3,948.9c-1.2,0-2.3,0-3.5-0.1c-29.2-1.9-51.4-27.2-49.5-56.4c0.9-14.1,7.3-27.1,17.9-36.4
					c10.7-9.4,24.3-14,38.5-13.1c29.2,1.9,51.4,27.2,49.5,56.4C1670.4,927.3,1647.1,948.9,1619.3,948.9z M1619.2,844.3
					c-12.5,0-24.5,4.5-33.9,12.8c-10.3,9.1-16.5,21.7-17.4,35.4c-0.9,13.7,3.6,27,12.7,37.4c9.1,10.3,21.7,16.5,35.4,17.4
					c28.4,1.8,53-19.7,54.8-48.1c1.8-28.4-19.7-53-48.1-54.8C1621.5,844.3,1620.4,844.3,1619.2,844.3z"/>
				<g>
					<path class="st1" d="M1615.4,956.6c-33.5-2.2-58.9-31.2-56.8-64.6l10.9,0.7c-1.8,27.4,19.1,51.2,46.5,53L1615.4,956.6z"/>
					<path class="st1" d="M1680,899.8l-10.9-0.7c0.9-13.3-3.5-26.1-12.3-36.1c-8.8-10-21-16-34.2-16.9l0.7-10.9
						C1656.7,837.3,1682.2,866.3,1680,899.8z"/>
				</g>
				<g>
					<path class="st1" d="M1558.5,891.9l-10.9-0.7c1.2-19.2,9.9-36.7,24.3-49.3c14.4-12.7,32.9-18.9,52.1-17.7l-0.7,10.9
						c-16.2-1.1-31.9,4.3-44.1,15C1566.9,860.8,1559.6,875.7,1558.5,891.9z"/>
					<path class="st1" d="M1619.4,967.7c-1.6,0-3.1-0.1-4.7-0.2l0.7-10.9c16.2,1.1,31.9-4.3,44.1-15c12.2-10.7,19.5-25.6,20.6-41.8
						l10.9,0.7C1688.5,938.5,1656.9,967.7,1619.4,967.7z"/>
				</g>
				<g>
					<path class="st1" d="M1673.1,848.3c-12.7-14.4-30.2-22.9-49.4-24.1c-19.1-1.2-37.6,5.2-51.9,17.9l-7.3-8.2
						c16.6-14.6,37.8-22,59.9-20.6c22.1,1.4,42.3,11.2,56.9,27.8L1673.1,848.3z"/>
					<path class="st1" d="M1619.4,978.6c-1.7,0-3.4-0.1-5.2-0.2c-22.1-1.4-42.3-11.2-56.9-27.8l8.2-7.3
						c26.2,29.6,71.7,32.4,101.3,6.2l7.3,8.2C1658.9,971.3,1639.6,978.6,1619.4,978.6z"/>
				</g>
				<g>
					<path class="st1" d="M1698.6,944.9l-9.3-5.8c23.9-38.6,11.9-89.4-26.6-113.2l5.8-9.3c21.2,13.1,36,33.7,41.7,57.9
						S1711.7,923.8,1698.6,944.9z"/>
					<path class="st1" d="M1570.2,975.1c-21.2-13.1-36-33.7-41.7-57.9c-5.7-24.2-1.6-49.2,11.5-70.4l9.3,5.8
						c-11.6,18.7-15.2,40.7-10.1,62.1c5,21.4,18.1,39.5,36.8,51.1L1570.2,975.1z"/>
				</g>
			</g>
			<g>
				<path class="st3" d="M1619.3,945.1c-1.1,0-2.1,0-3.2-0.1c-27.1-1.8-47.7-25.2-46-52.3c1.8-27.1,25.2-47.7,52.3-46
					c27.1,1.8,47.7,25.2,46,52.3C1666.8,925.1,1645.1,945.1,1619.3,945.1z M1619.3,848.1c-24.9,0-46,19.4-47.6,44.7
					c-0.8,12.7,3.4,25,11.8,34.6c8.4,9.6,20.1,15.3,32.8,16.1c26.3,1.7,49-18.3,50.7-44.5c1.7-26.3-18.3-49-44.5-50.7
					C1621.4,848.2,1620.3,848.1,1619.3,848.1z"/>
				<path class="st3" d="M1619.4,965.8c-1.5,0-3,0-4.6-0.1c-38.5-2.5-67.7-35.8-65.2-74.3c1.2-18.6,9.6-35.7,23.6-48
					c14-12.3,32-18.4,50.7-17.2c18.6,1.2,35.7,9.6,48,23.6c12.3,14,18.4,32,17.2,50.7C1686.7,937.3,1655.9,965.8,1619.4,965.8z
					 M1619.2,827.5c-16.6,0-32.4,6-45,17c-13.7,12.1-21.9,28.7-23.1,47c-2.4,37.6,26.2,70.3,63.8,72.7c37.6,2.4,70.3-26.2,72.7-63.8
					l0.8,0l-0.8,0c2.4-37.6-26.2-70.3-63.8-72.7C1622.2,827.5,1620.7,827.5,1619.2,827.5z"/>
				<path class="st3" d="M1619.4,977.2c-1.8,0-3.6-0.1-5.4-0.2c-21.7-1.4-41.5-11.2-55.9-27.5c-14.3-16.3-21.5-37.3-20-58.9
					c1.4-21.7,11.2-41.5,27.5-55.9c16.3-14.3,37.3-21.5,58.9-20c21.7,1.4,41.5,11.2,55.9,27.5c14.3,16.3,21.5,37.3,20,58.9l-0.8,0
					l0.8,0c-1.4,21.7-11.2,41.5-27.5,55.9C1658,970.1,1639.2,977.2,1619.4,977.2z M1619.3,816c-41.7,0-76.9,32.5-79.6,74.7
					c-2.9,43.9,30.6,82,74.5,84.8c1.8,0.1,3.5,0.2,5.2,0.2c41.7,0,76.9-32.5,79.6-74.7c1.4-21.3-5.6-41.8-19.7-57.9
					c-14.1-16-33.5-25.6-54.8-27C1622.7,816.1,1621,816,1619.3,816z"/>
				<path class="st3" d="M1619.4,987.3c-2,0-4-0.1-6.1-0.2c-24.4-1.6-46.7-12.6-62.8-30.9c-16.1-18.4-24.1-41.9-22.5-66.3
					c1.6-24.4,12.6-46.7,30.9-62.8c18.4-16.1,41.9-24.1,66.3-22.5c24.4,1.6,46.7,12.6,62.8,30.9c16.1,18.4,24.1,41.9,22.5,66.3l0,0
					c-1.6,24.4-12.6,46.7-30.9,62.8C1662.8,979.4,1641.6,987.3,1619.4,987.3z M1619.2,805.9c-47,0-86.6,36.6-89.7,84.1
					c-1.6,24,6.3,47.1,22.2,65.2c15.9,18.1,37.8,28.9,61.8,30.4c24,1.6,47.1-6.3,65.2-22.2c18.1-15.9,28.9-37.8,30.4-61.8l0.8,0
					l-0.8,0c3.2-49.5-34.4-92.4-83.9-95.6C1623.2,806,1621.2,805.9,1619.2,805.9z"/>
				<path class="st3" d="M1619.3,948.9c-1.2,0-2.3,0-3.5-0.1c-29.2-1.9-51.4-27.2-49.5-56.4c0.9-14.1,7.3-27.1,17.9-36.4
					c10.7-9.4,24.3-14,38.5-13.1c29.2,1.9,51.4,27.2,49.5,56.4C1670.4,927.3,1647.1,948.9,1619.3,948.9z M1619.2,844.3
					c-12.5,0-24.5,4.5-33.9,12.8c-10.3,9.1-16.5,21.7-17.4,35.4c-0.9,13.7,3.6,27,12.7,37.4c9.1,10.3,21.7,16.5,35.4,17.4
					c28.4,1.8,53-19.7,54.8-48.1c1.8-28.4-19.7-53-48.1-54.8C1621.5,844.3,1620.4,844.3,1619.2,844.3z"/>
				<g>
					<path class="st1" d="M1615.4,956.6c-33.5-2.2-58.9-31.2-56.8-64.6l10.9,0.7c-1.8,27.4,19.1,51.2,46.5,53L1615.4,956.6z"/>
					<path class="st1" d="M1680,899.8l-10.9-0.7c0.9-13.3-3.5-26.1-12.3-36.1c-8.8-10-21-16-34.2-16.9l0.7-10.9
						C1656.7,837.3,1682.2,866.3,1680,899.8z"/>
				</g>
				<g>
					<path class="st1" d="M1558.5,891.9l-10.9-0.7c1.2-19.2,9.9-36.7,24.3-49.3c14.4-12.7,32.9-18.9,52.1-17.7l-0.7,10.9
						c-16.2-1.1-31.9,4.3-44.1,15C1566.9,860.8,1559.6,875.7,1558.5,891.9z"/>
					<path class="st1" d="M1619.4,967.7c-1.6,0-3.1-0.1-4.7-0.2l0.7-10.9c16.2,1.1,31.9-4.3,44.1-15c12.2-10.7,19.5-25.6,20.6-41.8
						l10.9,0.7C1688.5,938.5,1656.9,967.7,1619.4,967.7z"/>
				</g>
				<g>
					<path class="st1" d="M1673.1,848.3c-12.7-14.4-30.2-22.9-49.4-24.1c-19.1-1.2-37.6,5.2-51.9,17.9l-7.3-8.2
						c16.6-14.6,37.8-22,59.9-20.6c22.1,1.4,42.3,11.2,56.9,27.8L1673.1,848.3z"/>
					<path class="st1" d="M1619.4,978.6c-1.7,0-3.4-0.1-5.2-0.2c-22.1-1.4-42.3-11.2-56.9-27.8l8.2-7.3
						c26.2,29.6,71.7,32.4,101.3,6.2l7.3,8.2C1658.9,971.3,1639.6,978.6,1619.4,978.6z"/>
				</g>
				<g>
					<path class="st1" d="M1698.6,944.9l-9.3-5.8c23.9-38.6,11.9-89.4-26.6-113.2l5.8-9.3c21.2,13.1,36,33.7,41.7,57.9
						S1711.7,923.8,1698.6,944.9z"/>
					<path class="st1" d="M1570.2,975.1c-21.2-13.1-36-33.7-41.7-57.9c-5.7-24.2-1.6-49.2,11.5-70.4l9.3,5.8
						c-11.6,18.7-15.2,40.7-10.1,62.1c5,21.4,18.1,39.5,36.8,51.1L1570.2,975.1z"/>
				</g>
			</g>
		</g>
		<g>
			<path class="st0" d="M1579.2,1024.3c1.2,0.6,2,1.4,2.7,2.5c0.6,1.1,0.9,2.4,0.9,3.8c0,1.5-0.3,2.7-0.9,3.8
				c-0.6,1.1-1.5,1.9-2.7,2.5c-1.2,0.6-2.5,0.9-4,0.9h-4.7v-14.4h4.7C1576.7,1023.4,1578,1023.7,1579.2,1024.3z M1579,1034.5
				c0.9-0.9,1.3-2.2,1.3-3.8c0-1.7-0.4-3-1.3-3.9c-0.9-0.9-2.2-1.4-3.9-1.4h-2.3v10.5h2.3C1576.9,1035.8,1578.1,1035.4,1579,1034.5z
				"/>
			<path class="st0" d="M1588,1037c-1.1-0.6-2-1.5-2.7-2.6c-0.7-1.1-1-2.4-1-3.8c0-1.4,0.3-2.7,1-3.8c0.7-1.1,1.5-2,2.7-2.6
				c1.1-0.6,2.4-0.9,3.7-0.9c1.4,0,2.6,0.3,3.7,0.9c1.1,0.6,2,1.5,2.7,2.6c0.6,1.1,1,2.4,1,3.8c0,1.4-0.3,2.7-1,3.8
				c-0.6,1.1-1.5,2-2.7,2.6c-1.1,0.6-2.4,0.9-3.7,0.9C1590.3,1037.9,1589.1,1037.6,1588,1037z M1594.2,1035.2
				c0.7-0.4,1.3-1.1,1.7-1.9c0.4-0.8,0.6-1.7,0.6-2.8c0-1.1-0.2-2-0.6-2.8c-0.4-0.8-1-1.4-1.7-1.8c-0.7-0.4-1.6-0.6-2.5-0.6
				s-1.8,0.2-2.5,0.6c-0.7,0.4-1.3,1-1.7,1.8c-0.4,0.8-0.6,1.7-0.6,2.8c0,1.1,0.2,2,0.6,2.8c0.4,0.8,1,1.4,1.7,1.9
				c0.7,0.4,1.6,0.7,2.5,0.7S1593.5,1035.6,1594.2,1035.2z"/>
			<path class="st0" d="M1620,1023.4l-4.3,14.4h-2.7l-3-10.9l-3.2,10.9l-2.6,0l-4.1-14.4h2.5l3,11.7l3.2-11.7h2.6l3,11.6l3-11.6
				H1620z"/>
			<path class="st0" d="M1633.8,1037.8h-2.4l-7.1-10.7v10.7h-2.4v-14.4h2.4l7.1,10.7v-10.7h2.4V1037.8z"/>
			<path class="st0" d="M1639.2,1035.9h4.9v1.9h-7.2v-14.4h2.4V1035.9z"/>
			<path class="st0" d="M1648.9,1037c-1.1-0.6-2-1.5-2.7-2.6c-0.7-1.1-1-2.4-1-3.8c0-1.4,0.3-2.7,1-3.8c0.7-1.1,1.5-2,2.7-2.6
				c1.1-0.6,2.4-0.9,3.7-0.9c1.4,0,2.6,0.3,3.7,0.9c1.1,0.6,2,1.5,2.7,2.6c0.6,1.1,1,2.4,1,3.8c0,1.4-0.3,2.7-1,3.8
				c-0.6,1.1-1.5,2-2.7,2.6c-1.1,0.6-2.4,0.9-3.7,0.9C1651.3,1037.9,1650,1037.6,1648.9,1037z M1655.2,1035.2
				c0.7-0.4,1.3-1.1,1.7-1.9c0.4-0.8,0.6-1.7,0.6-2.8c0-1.1-0.2-2-0.6-2.8c-0.4-0.8-1-1.4-1.7-1.8c-0.7-0.4-1.6-0.6-2.5-0.6
				s-1.8,0.2-2.5,0.6c-0.7,0.4-1.3,1-1.7,1.8c-0.4,0.8-0.6,1.7-0.6,2.8c0,1.1,0.2,2,0.6,2.8c0.4,0.8,1,1.4,1.7,1.9
				c0.7,0.4,1.6,0.7,2.5,0.7S1654.4,1035.6,1655.2,1035.2z"/>
			<path class="st0" d="M1670.9,1034.8h-6l-1,2.9h-2.5l5.1-14.4h2.7l5.1,14.4h-2.5L1670.9,1034.8z M1670.3,1032.9l-2.3-6.7l-2.4,6.7
				H1670.3z"/>
			<path class="st0" d="M1685.4,1024.3c1.2,0.6,2,1.4,2.7,2.5c0.6,1.1,0.9,2.4,0.9,3.8c0,1.5-0.3,2.7-0.9,3.8
				c-0.6,1.1-1.5,1.9-2.7,2.5c-1.2,0.6-2.5,0.9-4,0.9h-4.7v-14.4h4.7C1682.9,1023.4,1684.2,1023.7,1685.4,1024.3z M1685.2,1034.5
				c0.9-0.9,1.3-2.2,1.3-3.8c0-1.7-0.4-3-1.3-3.9c-0.9-0.9-2.2-1.4-3.9-1.4h-2.3v10.5h2.3C1683,1035.8,1684.3,1035.4,1685.2,1034.5z
				"/>
		</g>
		<g>
			<path class="st0" d="M1608.1,1051.2h-12.6v7.5c0.5-0.7,1.3-1.3,2.4-1.8c1-0.5,2.2-0.7,3.3-0.7c2.1,0,3.8,0.5,5.1,1.4
				c1.3,0.9,2.3,2,2.8,3.4c0.6,1.4,0.8,2.8,0.8,4.4c0,1.9-0.4,3.5-1.1,4.9c-0.7,1.4-1.8,2.6-3.2,3.4c-1.4,0.8-3.2,1.2-5.2,1.2
				c-2.7,0-4.9-0.7-6.6-2c-1.7-1.4-2.6-3.2-3-5.4h4.2c0.3,1.2,0.9,2.1,1.8,2.8c1,0.7,2.1,1,3.6,1c1.8,0,3.1-0.5,4-1.6
				c0.9-1.1,1.3-2.5,1.3-4.3c0-1.8-0.5-3.2-1.4-4.2c-0.9-1-2.2-1.4-4-1.4c-1.2,0-2.3,0.3-3.1,0.9c-0.8,0.6-1.4,1.4-1.8,2.5h-4.1
				v-15.9h16.6V1051.2z"/>
			<path class="st0" d="M1616.6,1050.7c1.5-2.4,4-3.7,7.6-3.7c3.6,0,6.1,1.2,7.6,3.7c1.5,2.4,2.2,5.8,2.2,10.2
				c0,4.4-0.7,7.8-2.2,10.3c-1.5,2.5-4,3.7-7.6,3.7c-3.6,0-6.1-1.2-7.6-3.7c-1.5-2.5-2.2-5.9-2.2-10.3
				C1614.4,1056.5,1615.2,1053.1,1616.6,1050.7z M1629.4,1055.7c-0.3-1.4-0.8-2.6-1.6-3.4c-0.8-0.9-2-1.3-3.6-1.3s-2.8,0.4-3.6,1.3
				c-0.8,0.9-1.3,2-1.6,3.4c-0.3,1.4-0.4,3.1-0.4,5.2c0,2.1,0.1,3.9,0.4,5.3c0.3,1.4,0.8,2.6,1.6,3.5c0.8,0.9,2,1.3,3.6,1.3
				s2.8-0.4,3.6-1.3c0.8-0.9,1.3-2,1.6-3.5c0.3-1.4,0.4-3.2,0.4-5.3C1629.8,1058.9,1629.7,1057.1,1629.4,1055.7z"/>
			<path class="st0" d="M1639.5,1049.8c1.1-1,2.4-1.6,4.1-1.6s3.1,0.5,4.1,1.6c1.1,1,1.6,2.5,1.6,4.3c0,1.8-0.5,3.3-1.6,4.3
				c-1.1,1.1-2.4,1.6-4.1,1.6s-3.1-0.5-4.1-1.6c-1.1-1.1-1.6-2.5-1.6-4.3C1637.9,1052.3,1638.4,1050.9,1639.5,1049.8z
				 M1641.3,1054.1c0,2.2,0.8,3.3,2.4,3.3c0.8,0,1.3-0.3,1.8-0.8c0.4-0.5,0.6-1.4,0.6-2.5c0-2.2-0.8-3.3-2.4-3.3
				S1641.3,1052,1641.3,1054.1z M1660.9,1048.8l-15,26.2h-4.2l15-26.2H1660.9z M1654.8,1065.2c1.1-1,2.4-1.6,4.1-1.6
				c1.7,0,3,0.5,4.1,1.6s1.6,2.5,1.6,4.3c0,1.8-0.5,3.3-1.6,4.3s-2.4,1.6-4.1,1.6c-1.7,0-3.1-0.5-4.1-1.6c-1.1-1.1-1.6-2.5-1.6-4.3
				C1653.2,1067.7,1653.8,1066.3,1654.8,1065.2z M1656.5,1069.5c0,2.2,0.8,3.3,2.4,3.3s2.4-1.1,2.4-3.3c0-2.2-0.8-3.3-2.4-3.3
				S1656.5,1067.4,1656.5,1069.5z"/>
		</g>
	</g>
	<path class="st2" d="M1026.5,410.2h514.3c-7.3-19.7-31.6-34.3-60.5-34.3c-4.4,0-8.8,0.3-12.9,1c0-0.5,0-1,0-1.5
		c0-33.8-36.9-61.2-82.4-61.2c-2.6,0-5.2,0.1-7.8,0.3c-4.8-38.1-47.9-67.9-100.4-67.9c-52.6,0-95.7,29.9-100.4,68.1
		c-3.4-0.3-6.8-0.5-10.3-0.5c-45.5,0-82.4,27.4-82.4,61.2c0,0.2,0,0.3,0,0.5C1056.4,377,1033.5,391.2,1026.5,410.2z"/>
	<path class="st0" d="M1560.2,399.3h-520l1-2.7c7.3-19.8,30.2-33.8,57.3-35.4c1-34.2,38.4-61.8,84.3-61.8c2.8,0,5.7,0.1,8.5,0.3
		c2.9-18.4,14.4-35.3,32.8-47.8c19-12.9,43.6-20.1,69.3-20.1c25.7,0,50.2,7.1,69.2,20c18.4,12.5,30,29.4,32.9,47.7
		c2-0.1,4.1-0.2,6.1-0.2c46.1,0,83.7,27.9,84.4,62.3c3.6-0.5,7.3-0.7,10.9-0.7c29,0,54.6,14.6,62.3,35.6L1560.2,399.3z
		 M1046.1,395.3h508.3c-8.3-17.9-31.4-30.3-57.5-30.3c-4.2,0-8.5,0.3-12.6,1l-2.4,0.4l0.1-2.4c0-0.5,0-0.9,0-1.4
		c0-32.6-36-59.2-80.4-59.2c-2.5,0-5.1,0.1-7.7,0.3l-1.9,0.1l-0.2-1.9c-2.2-17.9-13.4-34.5-31.4-46.8
		c-18.3-12.5-42.1-19.3-66.9-19.3c-24.9,0-48.7,6.9-67,19.4c-18,12.3-29.2,29-31.4,46.9l-0.2,1.9l-1.9-0.2
		c-3.3-0.3-6.7-0.5-10.1-0.5c-44.3,0-80.4,26.6-80.4,59.2l0,2.4l-2,0.1C1075.5,366,1054.1,378,1046.1,395.3z"/>
	<g>
		<g>
			<g>
				<rect x="1048.9" y="479.5" class="st2" width="59.3" height="36.3"/>
			</g>
			<g>
				<rect x="1048.9" y="457.5" class="st2" width="59.3" height="13.4"/>
			</g>
			<g>
				<polygon class="st2" points="1078.6,775.3 1136.3,728.7 1108.2,728.7 1108.2,525.4 1048.9,525.4 1048.9,728.7 1020.8,728.7 				
					"/>
			</g>
		</g>
	</g>
	<g>
		<path class="st0" d="M1099.5,524h-63.3v-40.3h63.3V524z M1040.2,520h55.3v-32.3h-55.3V520z"/>
		<path class="st0" d="M1099.5,479h-63.3v-17.4h63.3V479z M1040.2,475h55.3v-9.4h-55.3V475z"/>
		<path class="st0" d="M1067.8,784l-63.4-51.1h31.8V529.5h63.3v203.3h31.8L1067.8,784z M1015.8,736.8l52.1,42l52.1-42h-24.4V533.5
			h-55.3v203.3H1015.8z"/>
	</g>
	<g>
		<g>
			<g>
				<rect x="1194.5" y="589.8" class="st2" width="59.3" height="36.3"/>
			</g>
			<g>
				<rect x="1194.5" y="567.8" class="st2" width="59.3" height="13.4"/>
			</g>
			<g>
				<polygon class="st2" points="1224.1,885.6 1281.8,839 1253.7,839 1253.7,635.7 1194.5,635.7 1194.5,839 1166.3,839 				"/>
			</g>
		</g>
	</g>
	<g>
		<path class="st0" d="M1242.5,634.3h-63.3v-40.3h63.3V634.3z M1183.2,630.3h55.3v-32.3h-55.3V630.3z"/>
		<path class="st0" d="M1242.5,589.3h-63.3v-17.4h63.3V589.3z M1183.2,585.3h55.3v-9.4h-55.3V585.3z"/>
		<path class="st0" d="M1210.8,894.3l-63.4-51.1h31.8V639.8h63.3v203.3h31.8L1210.8,894.3z M1158.8,847.1l52.1,42l52.1-42h-24.4
			V643.8h-55.3v203.3H1158.8z"/>
	</g>
	<g>
		<g>
			<g>
				<rect x="1318.5" y="462.7" class="st2" width="59.3" height="36.3"/>
			</g>
			<g>
				<rect x="1318.5" y="440.7" class="st2" width="59.3" height="13.4"/>
			</g>
			<g>
				<polygon class="st2" points="1348.2,758.4 1405.9,711.8 1377.8,711.8 1377.8,508.5 1318.5,508.5 1318.5,711.8 1290.4,711.8 				
					"/>
			</g>
		</g>
	</g>
	<g>
		<path class="st0" d="M1366.6,507.1h-63.3v-40.3h63.3V507.1z M1307.3,503.1h55.3v-32.3h-55.3V503.1z"/>
		<path class="st0" d="M1366.6,462.2h-63.3v-17.4h63.3V462.2z M1307.3,458.2h55.3v-9.4h-55.3V458.2z"/>
		<path class="st0" d="M1334.9,767.1l-63.4-51.1h31.8V512.7h63.3V716h31.8L1334.9,767.1z M1282.8,720l52.1,42l52.1-42h-24.4V516.7
			h-55.3V720H1282.8z"/>
	</g>
	<g>
		<path class="st3" d="M1224.6,1149.9c-55.6,0-100.8-45.2-100.8-100.8s45.2-100.8,100.8-100.8s100.8,45.2,100.8,100.8
			S1280.2,1149.9,1224.6,1149.9z M1224.6,952.3c-53.4,0-96.8,43.4-96.8,96.8c0,53.4,43.4,96.8,96.8,96.8s96.8-43.4,96.8-96.8
			C1321.4,995.7,1278,952.3,1224.6,952.3z"/>
		<path class="st3" d="M1224.6,1135c-47.3,0-85.9-38.5-85.9-85.9c0-47.4,38.5-85.9,85.9-85.9s85.9,38.5,85.9,85.9
			C1310.5,1096.4,1272,1135,1224.6,1135z M1224.6,967.2c-45.1,0-81.9,36.7-81.9,81.9s36.7,81.9,81.9,81.9s81.9-36.7,81.9-81.9
			S1269.8,967.2,1224.6,967.2z"/>
		<path class="st3" d="M1224.6,1117.7c-37.8,0-68.6-30.8-68.6-68.6c0-37.8,30.8-68.6,68.6-68.6s68.6,30.8,68.6,68.6
			C1293.3,1086.9,1262.5,1117.7,1224.6,1117.7z M1224.6,984.5c-35.6,0-64.6,29-64.6,64.6c0,35.6,29,64.6,64.6,64.6
			s64.6-29,64.6-64.6C1289.3,1013.4,1260.3,984.5,1224.6,984.5z"/>
		<path class="st3" d="M1224.6,1097.8c-26.9,0-48.7-21.9-48.7-48.7s21.9-48.7,48.7-48.7s48.7,21.9,48.7,48.7
			S1251.5,1097.8,1224.6,1097.8z M1224.6,1004.4c-24.7,0-44.7,20.1-44.7,44.7c0,24.7,20.1,44.7,44.7,44.7s44.7-20.1,44.7-44.7
			C1269.3,1024.4,1249.3,1004.4,1224.6,1004.4z"/>
		<circle class="st2" cx="1224.6" cy="1049.1" r="21.8"/>
	</g>
	<path class="st3" d="M773.8,897.9c-1.6,0-2.9-0.4-3.6-1.2c-2.1-2.3,0.1-5.7,0.8-6.9c7.5-11.8,2.8-34.7,2.8-34.9l3.9-0.8
		c0.2,1,5,24.7-3.3,37.9c-0.7,1-0.9,1.7-1,2c2.4,0.3,11.3-2.9,19.9-7.2l1.8,3.6C787.7,894.1,779,897.9,773.8,897.9z"/>
	<circle class="st3" cx="799.9" cy="849.2" r="4"/>
	<circle class="st3" cx="755.5" cy="862.2" r="4"/>
	<path class="st3" d="M786.1,910.5l28.7-25.7C814.8,884.8,822.1,902.8,786.1,910.5z"/>
	<path class="st3" d="M785.9,841.2c3.3-1.8,9.3-4.9,14.4-5.6c0.7-0.1,0.8-1.1,0.1-1.3c-3.9-0.9-10.2-0.8-15.3,5.9
		C784.6,840.8,785.2,841.6,785.9,841.2z"/>
	<path class="st3" d="M746.4,856c3.3-1.8,9.3-4.9,14.4-5.6c0.7-0.1,0.8-1.1,0.1-1.3c-3.9-0.9-10.2-0.8-15.3,5.9
		C745.1,855.6,745.8,856.4,746.4,856z"/>
	<polygon class="st0" points="1227.4,1187.8 676.2,1187.8 676.2,1183.8 1223.4,1183.8 1223.4,1046.8 1227.4,1046.8 	"/>
</g>
</svg>
